<?xml version="1.0" encoding="utf-8"?>
<!-- Generator: Adobe Illustrator 21.1.0, SVG Export Plug-In . SVG Version: 6.00 Build 0)  -->
<svg version="1.1" id="logo" xmlns="http://www.w3.org/2000/svg" xmlns:xlink="http://www.w3.org/1999/xlink" x="0px" y="0px"
	 viewBox="0 0 267.1 147.5" style="enable-background:new 0 0 267.1 147.5;" xml:space="preserve">
<style type="text/css">
	.st0{fill:#F26522;}
	.st1{fill-rule:evenodd;clip-rule:evenodd;fill:#58595B;}
	.st2{display:none;}
	.st3{display:inline;fill:#0058A0;}
	.st4{display:inline;fill:#27AAE1;}
	.st5{display:inline;fill:#F26522;}
	.st6{fill-rule:evenodd;clip-rule:evenodd;fill:#E6E7E8;}
	.st7{fill-rule:evenodd;clip-rule:evenodd;fill:#414042;}
	.st8{fill:#414042;}
</style>
<g>
	<g>
		<path class="st0" d="M134.1,0l-1,0c-0.3,0-0.5,0.2-0.5,0.5V57c0,0.3,0.2,0.5,0.5,0.5h1.1c0.3,0,0.5-0.2,0.5-0.5l-0.1-56.5
			C134.6,0.2,134.4,0,134.1,0z"/>
	</g>
	<g>
		<path class="st0" d="M134.1,92.9l-1,0c-0.3,0-0.5,0.2-0.5,0.5V147c0,0.3,0.2,0.5,0.5,0.5h1.1c0.3,0,0.5-0.2,0.5-0.5l-0.1-53.5
			C134.6,93.2,134.4,92.9,134.1,92.9z"/>
	</g>
</g>
<polygon class="st1" points="133.7,14.5 13,73.7 133.7,132.9 254.3,73.7 "/>
<g class="st2">
	<polygon class="st3" points="133.9,73.7 72.4,104 133.9,135.8 195,104 	"/>
	<polygon class="st4" points="195,104 252.1,73.7 133.9,15.6 133.9,73.7 	"/>
	<polygon class="st4" points="72.4,104 133.9,73.7 133.9,15.6 15.2,73.7 	"/>
</g>
<g>
	<g id="QRS_reg">
		<g>
			<g>
				<path class="st0" d="M225.5,73.2l0,1c0,0.3,0.2,0.5,0.5,0.5h40.6c0.3,0,0.5-0.2,0.5-0.5v-1.1c0-0.3-0.2-0.5-0.5-0.5L226,72.7
					C225.7,72.7,225.5,73,225.5,73.2z"/>
			</g>
			<g class="st2">
				<path class="st5" d="M137.4,73.2l0,1c0,0.3,0.2,0.5,0.5,0.5h21.6c0.3,0,0.5-0.2,0.5-0.5v-1.1c0-0.3-0.2-0.5-0.5-0.5l-21.6,0.1
					C137.6,72.7,137.4,73,137.4,73.2z"/>
			</g>
			<g>
				<path class="st0" d="M72.7,72.7l-22.7-0.1c0.2-1.3,0.5-2.6,0.7-3.8c0.5-2.8,1.1-5.7,1.6-8.5c0.1-0.3-0.2-0.7-0.5-0.7l-0.1,0
					c-0.3,0-0.5,0.2-0.6,0.5l-0.4,1.4c-0.6,2.2-1.2,4.3-1.8,6.4c-0.4,1.4-1.1,2.6-1.7,3.8c-0.5,1-1,1.9-1.4,3
					c-0.6,1.5-1,3.1-1.5,4.6c0.3-2.7,0.7-5.3,1-8c1-8.4,2.1-17.1,3.1-25.7c0-0.3-0.2-0.6-0.5-0.7l-0.1,0c-0.3,0-0.5,0.2-0.6,0.5
					c-0.6,1.9-1.1,3.7-1.7,5.6c-1.9,6.5-3.9,13.2-6.4,19.3c-0.2,0.6-0.5,1.2-0.8,1.8c-0.1,0.2-0.3,0.5-0.4,0.7
					c-0.1,0.2-0.2,0.4-0.4,0.6c0-0.2,0.1-0.5,0.1-0.7c0.3-2.6,0.7-5.3,0.9-8c0-0.3-0.2-0.6-0.5-0.7l-0.1,0c-0.3,0-0.5,0.2-0.6,0.5
					c-0.3,0.9-0.5,1.9-0.7,2.8c-0.3,1.4-0.6,2.7-1.1,4l0,0.1c-0.3,0.9-0.6,1.4-0.6,1.4H0.5c-0.3,0-0.5,0.2-0.5,0.5l0,1.1
					c0,0.3,0.2,0.5,0.5,0.5c4.4,0,34.5,0,34.6,0l-0.3,2.7c-0.5,4.3-1.1,8.7-1.5,12.9c0,0.3,0.2,0.6,0.5,0.7l0.1,0
					c0.3,0,0.5-0.2,0.6-0.5c0.4-1.5,0.8-3.1,1.1-4.7c0.9-4.1,1.8-8,3.5-11.2c0.2-0.3,0.3-0.6,0.5-0.9c0.2-0.3,0.4-0.6,0.6-1
					c0.6-1.2,1.1-2.5,1.5-3.8l0.2-0.5c0.8-2.3,1.6-4.6,2.4-6.9c-0.7,5.9-1.4,11.7-2.1,17.6c-1.4,11.1-2.8,22.6-4,33.8
					c0,0.3,0.2,0.7,0.5,0.7l0.1,0c0.3,0,0.6-0.2,0.6-0.5l0.5-2.5c1.8-9.7,3.7-19.6,6-28.9l0.2-0.8c0.5-2.1,1.1-4.3,1.9-6.2l24.7,0
					c0.3,0,0.5-0.2,0.5-0.5l0-1C73.2,73,72.9,72.7,72.7,72.7z"/>
			</g>
		</g>
	</g>
	<g id="lettering">
		<g>
			<g>
				<g>
					<path class="st6" d="M150.3,84.5c0.1-1.6-0.5-4.4-4.7-4.7l-3.3,0c-1.6,0-3.1,0.7-3.9,1.8c-0.4,0.6-0.7,1.3-0.7,2h0
						c-0.3-2.3-1.9-3.5-4.8-3.7c-0.6,0-1.4-0.1-2.2-0.1c-2.2,0-3.7,0.4-4.7,1.2c-0.9,0.7-1.3,1.8-1.5,2.8v-3.9H112v2.9h-0.8v-2.9
						l-6.3,0l0,10.6h6.3v-2.8l0.8,0v2.8h12.5v-3.7c0.2,0.9,0.5,1.9,1.4,2.6c1,0.8,2.5,1.2,4.7,1.2l1,0c1.6,0,3.8,0,5.1-1.5
						c0.5-0.6,0.8-1.4,0.9-2.3c0.1,0.6,0.2,1.3,0.6,1.9c0.8,1.3,2.5,1.9,5.2,1.9l1.3,0c1.2,0,2.5-0.1,3.6-0.6c1.1-0.6,1.8-1.7,2-3.1
						V84.5z"/>
				</g>
				<g>
					<path class="st6" d="M98.8,79.9l-6.6,0v7.3l-5-7.3H83l-5.2,7.3v-1c0-0.5-0.2-0.6-0.2-0.6c0.3-0.3,0.2-0.9,0.2-1.4
						c0-4.3-3.9-4.3-5.8-4.3H65v4.5c0,0,0-1.4-0.5-2.4c-1-1.8-2.3-2.2-5.5-2.2l-1.2,0c-4,0-6.3,1-6.3,4.3l0,2.2
						c0.3,4.1,4.6,4.2,6.3,4.2H59c2.4,0,4.8-0.1,5.7-2.5c0.4-1,0.4-2.2,0.4-2.2c0,0,0,4.6,0,4.6h6.1v-2.8h0.7v2.8H83l0.9-1.2h2.2
						l0.8,1.2h11.6v-2.1c0.2,0,0.5,0,0.7,0c1.9,0,3.8-0.2,4.9-1.7c1.1-1.4,1.1-3.9-0.1-5.3C102.7,79.9,100.4,79.9,98.8,79.9z"/>
				</g>
			</g>
			<g>
				<g>
					<path class="st7" d="M142.4,81.8c1,0,2.1,0,3.1,0c1.7,0.1,2.8,0.7,2.8,2.6c-0.4,0.1-0.9,0-1.4,0c0.8,0.3,1.4,0.7,1.5,1.7
						c0,0.1,0,0.3,0,0.4c-0.1,0.6-0.3,1.2-1,1.5c-1,0.5-2.6,0.4-4,0.4c-1.4,0-3-0.2-3.5-1c-0.3-0.5-0.3-1.3-0.3-1.9
						c0.4,0,0.8,0,1.2,0c-0.4-0.2-0.8-0.5-1-1C139.2,82.8,140.7,81.8,142.4,81.8z M143.1,83.5c-0.5,0-1.2-0.1-1.1,0.5
						c1.1,0.3,2.8,0.2,4,0.3c-0.1-0.2,0-0.5-0.1-0.7C145.4,83.5,143.9,83.5,143.1,83.5z M141.9,86.7c1.1,0.2,2.9,0.2,4.1,0
						c0-0.2,0-0.4,0-0.6c-1.2-0.2-2.9-0.1-4.2-0.3C141.8,86.2,141.9,86.4,141.9,86.7z"/>
				</g>
				<g>
					<path class="st7" d="M135.7,84.8c-0.8,0-1.6,0-2.4,0c0-0.4,0.1-0.7,0-1.1c-1.1-0.3-3.3-0.3-4.4,0c-0.2,0.8-0.1,1.9,0,2.7
						c1,0.5,3.1,0.3,4.4,0.2c0.1-0.3,0.1-0.8,0.1-1.2c0.8,0,1.5,0,2.3,0c0.4,3.2-2,3-5.1,3c-1.3,0-2.7-0.2-3.4-0.7
						c-1.1-0.9-1.1-4.4,0.1-5.2c1.1-0.9,3.6-0.8,5.5-0.6C134.7,82,135.8,82.6,135.7,84.8z"/>
				</g>
				<g>
					<path class="st7" d="M120.2,81.9c0.8,0,1.5,0,2.3,0c0,2.2,0,4.4,0,6.6c-0.8,0-1.6,0-2.3,0C120.2,86.3,120.1,84,120.2,81.9z"/>
				</g>
				<g>
					<path class="st7" d="M109.2,81.9c0,0.8,0,1.6,0,2.4c1.5,0.1,3.1,0,4.7,0c0.1-0.7,0-1.6,0-2.4c0.8,0,1.5,0,2.3,0
						c0,2.2,0,4.4,0,6.6c-0.8,0-1.5,0-2.3,0c0-0.8,0-1.6,0-2.5c-1.5-0.1-3.2,0-4.7,0c0,0.8,0,1.7,0,2.5c-0.8,0-1.5,0-2.3,0
						c0-2,0-4.5,0-6.4c0-0.1,0-0.2,0.1-0.2C107.7,81.9,108.5,81.9,109.2,81.9z"/>
				</g>
				<g>
					<path class="st7" d="M94.1,81.9l6.2,0c1.2,0,1.7,0.3,2.1,0.8c0.5,0.7,0.5,2.1,0,2.8c-0.4,0.5-1,0.9-2.2,0.9h-3.8v2.1h-2.3
						L94.1,81.9z M96.5,84.7h4c0.7,0,0.7-1.1,0-1.1h-4V84.7z"/>
				</g>
				<g>
					<path class="st7" d="M84,81.9h2.2l4.4,6.6H88l-0.8-1.1h-4.4l-0.9,1.1h-2.6L84,81.9z M83.9,85.6h2.2L85,84.1L83.9,85.6z"/>
				</g>
				<g>
					<path class="st7" d="M75.4,85.6c0.2,0.2,0.4,0.4,0.4,0.9v2h-2.3V87c0-0.5-0.2-0.7-0.5-0.7h-3.6v2.1H67l0-6.6h5.9
						c1.8,0,3.1,0.9,3.1,2.2C76,84.7,75.8,85.2,75.4,85.6z M69.4,83.5v1.1c0,0,3.1,0.2,4.2-0.2c0.1-0.2,0.1-0.5,0-0.7
						C72.4,83.4,69.4,83.5,69.4,83.5z"/>
				</g>
				<g>
					<path class="st7" d="M60.7,83.9c0-0.1,0-0.1-0.1-0.2c-1.3-0.2-3.5-0.3-4.6,0.1c-0.3,0.8-0.1,1.9,0,2.8c0.7,0.4,2.1,0.3,3.2,0.3
						c0.6,0,1.5,0.1,1.5-0.5c-1-0.1-2.2,0-3.2-0.1c0-0.5,0-1.1,0-1.6c1.1,0,2.2,0,3.2,0c0,0,0,0,0,0l2.3,0c0,0.2,0,0.2,0,0.4
						c0,0.7,0.1,1.7-0.2,2.3c-0.5,1.3-2.3,1.1-3.9,1.3c-0.4,0-0.8,0-1.2,0c-2.2,0-4.2-0.3-4.3-2.4c0-0.6,0-1.3,0-1.9
						c0.1-1.8,1.5-2.3,3.2-2.4c1,0,2,0,3,0c1.2,0.2,2.5,0,3,1.1c0.1,0.2,0.2,0.6,0.2,1L60.7,83.9z"/>
				</g>
			</g>
		</g>
		<g>
			<g>
				<path class="st6" d="M219.4,59.4c-0.5-0.1-37.4-0.1-37.9,0c-1,0.1-1.9,0.5-2.7,1l0.7-1h-8.3l-7.1,13.3l-0.8-13.3
					c0,0-26.5,0-27,0c-1.1,0.1-2.2,0.6-3,1.2l0.2-1.3l-19.9,0c-1.6,0.2-2.9,0.8-3.9,1.8l0.8-4.4H100l-1.2,6.7h-5.6l1.1-6.7h-12
					l-0.5,2.7c-0.4-2.1-3.3-2.7-5.1-2.7h-21l-1.4,7.9h1.3c-1.2,1.1-1.9,2.4-2.1,3.9L52,77.2h28.3l0.8-4.4h16.2l-0.8,4.4l10.6,0
					c0,0,18.1,0,18.5,0c2.1-0.2,3.8-1.4,4.7-2.6c0.7,1.4,2.1,2.4,3.8,2.6c0.5,0.1,19.5,0,19.5,0l0.9-6l1,19.4h7.8
					c0,0,11.1-20.1,12-21.7c0,0-0.4,2-0.5,2.9c-0.2,2.8,1.7,5.1,4.4,5.4c0.5,0.1,1.1,0.1,1.7,0.1c0.5,0,25.3-0.1,25.3-0.1
					s1.7-9.5,1.8-10.4h5.9c-0.2,1-1.7,10.4-1.7,10.4l9.2,0l2.2-12.2C224.2,61.7,221.6,59.7,219.4,59.4z M108.3,70l0.1-0.8
					c0.2,0.3,0.4,0.6,0.6,0.8H108.3z"/>
			</g>
			<g>
				<g>
					<path class="st7" d="M221.7,64.1c0,0.2,0,0.4,0,0.6l-1.9,10.5l-5.3,0l1.7-10.3h-10l-1.8,10.4h-5.2l2.4-13.8
						c0,0,16.2-0.2,17.5,0C220.5,61.6,221.5,62.8,221.7,64.1z"/>
				</g>
				<g>
					<path class="st7" d="M199.1,61.4l-0.6,3.4h-15.3l-0.4,1.9h14.3l-0.5,2.9h-14.2l-0.4,2.1h15.3l-0.6,3.5c0,0-16,0.2-17.5,0
						c-1.6-0.2-2.7-1.5-2.6-3.3c0.1-1.2,1-6.6,1.3-7.6c0.5-1.3,1.9-2.7,3.6-2.9C183.1,61.3,199.1,61.4,199.1,61.4z"/>
				</g>
				<g>
					<polygon class="st7" points="155.8,61.4 160.3,61.4 161.5,81.8 172.4,61.4 177,61.4 162.1,88.6 157.3,88.6 					"/>
				</g>
				<g>
					<path class="st7" d="M154,61.4c-0.2,1.2-0.4,2.3-0.6,3.4c-5.1,0-10.2,0-15.3,0c-0.1,0.6-0.2,1.2-0.3,1.9c4.7,0.1,9.5,0,14.3,0
						c-0.2,1-0.4,1.9-0.5,2.9c-4.8,0-9.5,0-14.3,0l-0.4,2l15.3,0l-0.6,3.5c0,0-16.1,0.2-17.5,0c-1.4-0.2-2.5-1.3-2.6-2.7
						c-0.1-1.2,1-7.5,1.6-8.7c0.6-1.1,1.9-2.2,3.4-2.4C138,61.3,149.6,61.4,154,61.4z"/>
				</g>
				<g>
					<path class="st7" d="M113.9,61.4c5.8,0,11.5,0,17.3,0c-0.2,1.1-0.4,2.2-0.6,3.3c-5,0-10,0-15,0c-0.2,0.6-0.2,1.3-0.4,1.9
						c3.1,0.3,7.7-0.2,11.1,0c1.7,0.1,3.4,1,3.5,2.7c0,0.5-0.1,1-0.2,1.5c-0.1,0.9-0.3,1.7-0.7,2.3c-0.7,1-2,2-3.5,2.1
						c-1.3,0.1-2.9,0-4.4,0c-4.1,0-9,0-13,0c0,0,0-0.1,0-0.1c0.2-1,0.3-2.1,0.6-3.1c5,0,10,0,15,0c0.2-0.7,0.3-1.5,0.4-2.3
						c-1.9,0-3.7,0-5.5,0c-1.8,0-3.7,0.2-5.5,0c-1.9-0.2-3.5-1.4-3.4-3.6C109.8,63.5,111.4,61.7,113.9,61.4z"/>
				</g>
				<g>
					<path class="st8" d="M101.7,58.8h6.5l-2.8,16.4h-6.5l1-5.9H82.2L84,58.8h6.5l-1.2,6.7h11.2L101.7,58.8z"/>
				</g>
				<g>
					<path class="st8" d="M62.2,68.5l-0.5,2.9h17.5l-0.7,3.8H54.4l1.1-6.2c0.2-1.2,0.8-2.2,1.9-3c1.1-0.9,2.2-1.3,3.5-1.3h12.8
						l0.3-1.9H56.7l0.7-3.9h19.3c1.3,0,2.3,0.4,3.1,1.3c0.8,0.9,1,1.9,0.8,3.1l-0.2,1.1c-0.2,1.2-0.8,2.2-1.9,3.1
						c-1,0.8-2.2,1.3-3.5,1.3H62.2z"/>
				</g>
			</g>
		</g>
	</g>
</g>
</svg>
