<?xml version="1.0" encoding="utf-8"?>
<!-- Generator: Adobe Illustrator 21.1.0, SVG Export Plug-In . SVG Version: 6.00 Build 0)  -->
<svg version="1.1" id="Layer_1" xmlns="http://www.w3.org/2000/svg" xmlns:xlink="http://www.w3.org/1999/xlink" x="0px" y="0px"
	 viewBox="0 0 259.9 68.8" style="enable-background:new 0 0 259.9 68.8;" xml:space="preserve">
<style type="text/css">
	.st0{fill:#FFFFFF;}
	.st1{fill:#474648;}
	.st2{fill-rule:evenodd;clip-rule:evenodd;fill:#231F20;}
	.st3{fill:#231F20;}
</style>
<g>
	<g>
		<g>
			<g>
				<path class="st0" d="M247.7,27.8c-6.4,0-12.6,0-18.9,0l-1.2,0c-5.8,0-11.7,0-17.6,0c-10.4,0-21.1,0-32.7,0
					c-0.4,0-0.6,0.3-0.6,0.6v0.8c0,0.4,0.3,0.6,0.6,0.6h82.7v-2.1C251.9,27.8,255.1,27.8,247.7,27.8z"/>
			</g>
		</g>
		<g>
			<path class="st0" d="M155.7,27.8c-11.6,0-22.3,0-32.7,0c-5.9,0-11.8,0-17.6,0l-1.2,0c-6.3,0-12.5,0-18.9,0c-10.1,0-20.6,0-31.9,0
				c0.2-1.3,0.5-2.6,0.7-3.8c0.5-2.8,1.1-5.7,1.6-8.5c0.1-0.3-0.2-0.7-0.5-0.7l-0.1,0c-0.3,0-0.5,0.2-0.6,0.5l-0.4,1.4
				c-0.6,2.2-1.2,4.3-1.8,6.4c-0.4,1.4-1.1,2.6-1.7,3.8c-0.5,1-1,1.9-1.4,3c-0.6,1.5-1,3.1-1.5,4.6c0.3-2.7,0.7-5.3,1-8
				c1-8.4,2.1-17.1,3.1-25.7c0-0.3-0.2-0.6-0.5-0.7l-0.1,0c-0.3,0-0.5,0.2-0.6,0.5c-0.6,1.9-1.1,3.7-1.7,5.6
				c-1.9,6.5-3.9,13.2-6.4,19.3c-0.2,0.6-0.5,1.2-0.8,1.8c-0.1,0.2-0.3,0.5-0.4,0.7c-0.1,0.2-0.2,0.4-0.4,0.6c0-0.2,0.1-0.5,0.1-0.7
				c0.3-2.6,0.7-5.3,0.9-8c0-0.3-0.2-0.6-0.5-0.7l-0.1,0c-0.3,0-0.5,0.2-0.6,0.5c-0.3,0.9-0.5,1.9-0.7,2.8c-0.3,1.4-0.6,2.7-1.1,4
				l0,0.1c-0.3,0.9-0.5,1.3-0.6,1.4c-0.1,0-0.2,0-0.3,0c-0.3,0-0.5,0-0.8,0c-0.3,0-0.6,0-0.8,0H0.6c-0.4,0-0.6,0.3-0.6,0.6v0.8
				c0,0.4,0.3,0.6,0.6,0.6h35.9c0.2,0,0.5,0,0.7,0c0.3,0,0.6,0,0.9,0c0.1,0,0.2,0,0.3,0l-0.3,2.6c-0.5,4.3-1.1,8.7-1.5,12.9
				c0,0.3,0.2,0.6,0.5,0.7l0.1,0c0.3,0,0.5-0.2,0.6-0.5c0.4-1.5,0.8-3.1,1.1-4.7c0.9-4.1,1.8-8,3.5-11.2c0.2-0.3,0.3-0.6,0.5-0.9
				c0.2-0.3,0.4-0.6,0.6-1c0.6-1.2,1.1-2.5,1.5-3.8l0.2-0.5c0.8-2.3,1.6-4.6,2.4-6.9c-0.7,5.9-1.4,11.7-2.1,17.6
				c-1.4,11.1-2.8,22.6-4,33.8c0,0.3,0.2,0.7,0.5,0.7l0.1,0c0.3,0,0.6-0.2,0.6-0.5l0.5-2.5c1.8-9.7,3.7-19.6,6-28.9l0.2-0.8
				c0.5-2.1,1.1-4.3,1.9-6.2l0.2,0h104.1c0.4,0,0.6-0.3,0.6-0.6v-0.8C156.3,28.1,156.1,27.8,155.7,27.8z"/>
		</g>
	</g>
	<g>
		<g>
			<g>
				<path class="st1" d="M120.4,15.3c5,0,10,0,15,0c0.2-1.1,0.4-2.2,0.6-3.3c-0.2,0-0.4,0-0.6,0c-0.1,0.9-0.3,1.8-0.4,2.6
					c-5,0-10,0-15,0c-0.1,0.2-0.1,0.5-0.2,0.8c0.2,0,0.4,0,0.6,0L120.4,15.3z"/>
			</g>
			<g>
				<path class="st1" d="M122.7,19.7c-1.8,0-3.7,0.2-5.5,0c-0.8-0.1-1.5-0.3-2.1-0.8l-0.2-0.1c0.6,0.9,1.6,1.4,2.8,1.5
					c1.8,0.2,3.7,0,5.5,0c1.2,0,2.4,0,3.6,0c0-0.2,0.1-0.4,0.1-0.7C125.6,19.7,124.2,19.7,122.7,19.7z"/>
			</g>
			<g>
				<path class="st1" d="M133.6,23.8c0.4-0.6,0.6-1.4,0.7-2.3c0.1-0.5,0.2-1,0.2-1.5c0-0.7-0.3-1.2-0.8-1.6c0.1,0.3,0.2,0.6,0.3,1
					c0,0.5-0.1,1-0.2,1.5c-0.2,0.9-0.3,1.7-0.7,2.3c-0.7,1-2,2-3.5,2.1c-1.3,0.1-2.8,0-4.4,0c-3.9,0-8.5,0-12.4,0
					c0,0.2-0.1,0.4-0.1,0.6v0.1c4,0,8.8,0,13,0c1.5,0,3,0.1,4.4,0C131.7,25.7,133,24.8,133.6,23.8z"/>
			</g>
			<g>
				<path class="st1" d="M142.1,20.3c4.8,0,9.5,0,14.3,0c0.1-1,0.3-2,0.5-2.9c-0.2,0-0.4,0-0.6,0c-0.1,0.7-0.3,1.5-0.4,2.3
					c-4.8,0-9.5,0-14.3,0c-0.1,0.3-0.1,0.5-0.2,0.8c0.2,0,0.4,0,0.6,0L142.1,20.3z"/>
			</g>
			<g>
				<path class="st1" d="M139,25.9c1.5,0.2,3,0,4.4,0c4.5,0,8.6,0,13.2,0c0.2-1.2,0.4-2.3,0.6-3.5c-0.2,0-0.4,0-0.6,0
					c-0.2,0.9-0.3,1.8-0.5,2.8c-4.6,0-8.6,0-13.2,0c-1.4,0-2.9,0.2-4.4,0c-0.6-0.1-1.1-0.3-1.5-0.6l-0.1-0.1
					C137.3,25.2,138.1,25.8,139,25.9z"/>
			</g>
			<g>
				<path class="st1" d="M157.7,14.8c-5.1,0-10.2,0-15.3,0c0,0.2-0.1,0.4-0.1,0.7c0.2,0,0.4,0,0.6,0v0c5.1,0,10.2,0,15.3,0
					c0.2-1.2,0.4-2.3,0.6-3.4c-0.2,0-0.4,0-0.6,0C158,13,157.8,13.9,157.7,14.8z"/>
			</g>
			<g>
				<path class="st1" d="M165,12.1c-0.2,0-0.3,0-0.5,0c0.3,5.7,0.7,11.3,1,17c0.1-0.3,0.3-0.5,0.4-0.8
					C165.7,22.9,165.3,17.5,165,12.1z"/>
			</g>
			<g>
				<path class="st1" d="M181.7,12.1c-0.3,0-0.5,0-0.8,0l-0.1,0.1c-4.8,8.7-9.7,17.7-14.5,26.4c-1.4,0-2.8,0-4.3,0
					c0,0.2,0,0.4,0,0.7c1.6,0,3.1,0,4.7,0c4.9-8.7,9.7-17.7,14.5-26.4C181.5,12.6,181.8,12.3,181.7,12.1z"/>
			</g>
			<g>
				<path class="st1" d="M201.1,25.2c-4.5,0-8.7,0-13.1,0c-1.4,0-2.9,0.2-4.4,0c-0.6-0.1-1-0.3-1.5-0.6l-0.2-0.1
					c0.5,0.7,1.2,1.2,2.1,1.3c1.5,0.2,3,0,4.4,0c4.4,0,8.6,0,13.1,0c0.2-1.1,0.4-2.3,0.6-3.5c-0.2,0-0.4,0-0.6,0
					C201.4,23.3,201.2,24.3,201.1,25.2z"/>
			</g>
			<g>
				<path class="st1" d="M188,15.5c5.1,0,10.2,0,15.3,0c0.2-1.2,0.4-2.3,0.6-3.4c-0.2,0-0.4,0-0.6,0c-0.2,0.9-0.3,1.8-0.5,2.8
					c-5.1,0-10.2,0-15.3,0c-0.1,0.2-0.1,0.5-0.1,0.7L188,15.5L188,15.5z"/>
			</g>
			<g>
				<path class="st1" d="M187.2,20.3c4.8,0,9.5,0,14.2,0c0.2-1,0.3-2,0.5-2.9c-0.2,0-0.4,0-0.6,0c-0.1,0.8-0.3,1.5-0.4,2.3
					c-4.8,0-9.5,0-14.3,0c-0.1,0.3-0.1,0.6-0.2,0.9h0.7L187.2,20.3z"/>
			</g>
			<g>
				<path class="st1" d="M210.5,14.8c-0.6,3.4-1.2,7-1.8,10.4c-1.5,0-3.1,0-4.6,0c0,0.2-0.1,0.4-0.1,0.7c1.8,0,3.5,0,5.2,0
					c0.7-3.4,1.2-6.9,1.8-10.4c2.7,0,5.4,0,8.1,0c0-0.2,0.1-0.4,0.1-0.7C216.3,14.8,213.4,14.8,210.5,14.8z"/>
			</g>
			<g>
				<path class="st1" d="M225.5,12.9c0.2,0.4,0.4,0.8,0.4,1.2c0,0.2,0,0.4,0,0.6c-0.6,3.5-1.2,7.1-1.9,10.5c-1.5,0-3.2,0-4.7,0
					c0,0.2-0.1,0.4-0.1,0.7c1.7,0.1,3.5,0,5.3,0c0.7-3.4,1.2-7,1.9-10.5c0-0.2,0-0.4,0-0.6C226.3,14,226,13.4,225.5,12.9z"/>
			</g>
			<g>
				<path class="st1" d="M67,19.2h12.8c1.3,0,2.5-0.4,3.5-1.3c1.1-0.9,1.7-1.9,1.9-3.1l0.2-1.1c0.2-1.2-0.1-2.2-0.8-3.1l-0.1-0.1
					c0.4,0.7,0.6,1.5,0.4,2.4l-0.2,1.1c-0.2,1.2-0.8,2.2-1.9,3.1c-1,0.8-2.2,1.3-3.5,1.3H66.5l-0.3,1.7h0.6L67,19.2z"/>
			</g>
			<g>
				<polygon class="st1" points="61.6,12.8 61.5,13.4 76.8,13.4 76.9,12.8 				"/>
			</g>
			<g>
				<polygon class="st1" points="59.2,25.2 59.1,25.9 83.3,25.9 83.9,22 83.3,22 82.8,25.2 				"/>
			</g>
			<g>
				<polygon class="st1" points="103.7,25.2 103.6,25.9 110.1,25.9 112.9,9.5 112.3,9.5 109.6,25.2 				"/>
			</g>
			<g>
				<polygon class="st1" points="87,19.3 86.9,20 102.7,20 102.8,19.3 				"/>
			</g>
			<g>
				<polygon class="st1" points="95.2,9.5 94.6,9.5 93.8,14.3 94.4,14.3 				"/>
			</g>
			<g>
				<path class="st1" d="M66.8,34.2c0,0.2,0.1,0.4,0.1,0.6h-0.1l0,0.1l0,0.2l0,0.1h0.5c0-0.3-0.1-0.7-0.2-0.9
					c-0.1-0.1-0.2-0.3-0.3-0.4L66.8,34.2L66.8,34.2z"/>
			</g>
			<g>
				<path class="st1" d="M60.6,34.6h0.4h3.2l0.4,0l0,0l-0.1,0l-0.3,0h-0.3l0-0.1c-1.3-0.1-2.9-0.1-3.9,0.2c-0.2,0.5-0.2,1.3-0.1,2
					c0.1,0,0.2,0.1,0.4,0.1c0-0.6,0-1.1,0.1-1.5l0.3-0.1V35V34.6z"/>
			</g>
			<g>
				<path class="st1" d="M66.9,36.1c0,0.7,0.1,1.6-0.2,2.2c-0.5,1.3-2.3,1.1-3.9,1.3c-0.4,0-0.8,0-1.2,0c-1.1,0-2.2-0.1-3-0.5
					c-0.2,0-0.3-0.1-0.5-0.2c0.7,1,2.2,1.1,3.9,1.2c0.4,0,0.8,0,1.2,0c1.6-0.1,3.3,0,3.9-1.3c0.2-0.6,0.1-1.6,0.2-2.3
					c0-0.1,0-0.3,0-0.4L66.9,36.1z"/>
			</g>
			<g>
				<path class="st1" d="M152.2,35.4c-0.1,0-0.3,0-0.4,0c0.1,0.2,0.2,0.3,0.3,0.5c0.2,0,0.4,0,0.5,0c0-0.8-0.2-1.4-0.5-1.8l0,0.2
					C152.2,34.7,152.3,35,152.2,35.4z"/>
			</g>
			<g>
				<path class="st1" d="M152.2,36.7c0,0.1,0.1,0.3,0.1,0.4c0,0.1,0,0.3,0,0.4c-0.1,0.6-0.3,1.2-1,1.5c-1,0.5-2.6,0.4-4,0.4
					c-1.1,0-2.2-0.1-2.9-0.5l-0.2-0.1l0.1,0.1c0.5,0.8,2.1,1,3.5,1c1.5,0,3,0.1,4-0.4c0.6-0.3,0.9-1,1-1.5c0-0.1,0-0.3,0-0.4
					c0-0.5-0.2-0.8-0.5-1.1V36.7z"/>
			</g>
			<g>
				<path class="st1" d="M74.4,34.6c0.3,0,0.6,0,0.9,0c0.4,0,0.9,0,1.4-0.1c-1-0.1-2.2,0-3.2,0l0,0.1l0.1,0
					C73.8,34.6,74.1,34.6,74.4,34.6z"/>
			</g>
			<g>
				<path class="st1" d="M79.8,34.2l0,0.2c0.1,0.2,0.1,0.4,0.1,0.7c0,0.5-0.1,0.9-0.4,1.3c0.1,0.2,0.1,0.4,0.1,0.6
					c0.2,0.6,0.1,1.7,0.1,2.5c-0.6,0-1.3,0-1.9,0c0,0.2,0,0.4,0,0.5c0.8,0,1.5,0,2.3,0c-0.1-1,0.2-2.4-0.4-2.9
					c0.4-0.3,0.6-0.9,0.6-1.5C80.3,34.9,80.1,34.5,79.8,34.2z"/>
			</g>
			<g>
				<path class="st1" d="M76.6,37.3c-1-0.1-2.3,0-3.3,0c0,0.7,0,1.4,0,2.1c-0.7,0-1.3,0-2,0c0,0.2,0,0.4,0,0.5c0.8,0,1.6,0,2.3,0
					c0-0.7,0-1.4,0-2.1c0.9,0.1,2-0.1,2.9,0C76.6,37.6,76.6,37.4,76.6,37.3z"/>
			</g>
			<g>
				<path class="st1" d="M90.7,38.3c-0.5,0-1.1,0-1.7,0c-0.7,0-1.6-0.2-2.2,0c-0.5,0.2-0.5,0.9-0.9,1.1c-0.6,0-1.3,0-1.9,0l-0.1,0.1
					c-0.1,0.1-0.2,0.3-0.2,0.4c0.8,0,1.7,0,2.5,0c0.4-0.2,0.4-1,0.9-1.1c0.5-0.2,1.4,0,2.2,0c0.6,0,1.1,0,1.6,0
					c-0.1-0.1-0.2-0.3-0.2-0.4L90.7,38.3z"/>
			</g>
			<g>
				<path class="st1" d="M88.9,35.6l-0.1-0.2l-0.1-0.2c-0.1,0.1-0.1,0.2-0.2,0.3l0.2,0H88.9z"/>
			</g>
			<g>
				<path class="st1" d="M94.5,39.3l0.1,0.1c-0.7-0.2-1.8,0.2-2.5,0l-0.1-0.1c0.1,0.3,0.2,0.5,0.5,0.6c0.7,0.2,1.8-0.2,2.5,0
					C94.8,39.7,94.6,39.5,94.5,39.3L94.5,39.3z"/>
			</g>
			<g>
				<path class="st1" d="M106.7,34.1l0,0.3c0.2,0.7,0.1,1.6-0.3,2.1c-1,1.3-3.9,0.8-6,0.9c0,0.7,0,1.4,0,2.1c-0.7,0-1.3,0-2,0
					c0,0.2,0,0.3,0,0.5c0.8,0,1.6,0,2.3,0c0-0.7,0-1.4,0-2.1c2.1-0.1,5,0.4,6-0.9C107.3,36.3,107.4,34.8,106.7,34.1L106.7,34.1z"/>
			</g>
			<g>
				<path class="st1" d="M101.3,34.7c0.3,0,0.5,0,0.8,0c0.5,0,1,0,1.5-0.1l0-0.1c-1-0.1-2.1,0-3.1,0l0,0.1v0h0.1
					C100.8,34.7,101.1,34.7,101.3,34.7z"/>
			</g>
			<g>
				<path class="st1" d="M113.5,33.3c-0.1,0-0.3,0-0.4,0c0,0.3,0,0.6,0,0.9c0.1,0,0.3,0,0.4,0C113.5,33.9,113.5,33.6,113.5,33.3z"/>
			</g>
			<g>
				<path class="st1" d="M120.2,39.4c-0.6,0-1.3,0-1.9,0c0,0.2,0,0.3,0,0.5c0.8,0,1.5,0,2.3,0c0-2.2,0-4.4,0-6.6c-0.1,0-0.3,0-0.4,0
					C120.2,35.3,120.2,37.4,120.2,39.4z"/>
			</g>
			<g>
				<path class="st1" d="M113.2,36.9c0,0.8,0,1.7,0,2.5c-0.6,0-1.3,0-1.9,0c0,0.2,0,0.4,0,0.5c0.8,0,1.5,0,2.3,0c0-0.8,0-1.7,0-2.5
					c1.2,0,2.3,0,3.5,0v-0.5C115.8,36.9,114.4,36.9,113.2,36.9z"/>
			</g>
			<g>
				<path class="st1" d="M126.5,39.4c-0.7,0-1.3,0-2,0c0,0.2,0,0.4,0,0.5c0.8,0,1.6,0,2.3,0c0-2.2,0-4.4,0-6.6c-0.1,0-0.3,0-0.4,0
					C126.5,35.3,126.5,37.4,126.5,39.4z"/>
			</g>
			<g>
				<path class="st1" d="M139.5,34.2l0,0.2c0.1,0.3,0.1,0.8,0.1,1.3h-0.2l0,0.1c0,0.1,0,0.3,0,0.4c0.2,0,0.3,0,0.5,0
					C140.1,35.3,139.9,34.7,139.5,34.2z"/>
			</g>
			<g>
				<path class="st1" d="M133.2,35.3c0.8-0.3,2.1-0.3,3.2-0.2c0-0.1,0-0.2,0-0.3l0-0.2c-1.2-0.1-2.7-0.1-3.6,0.2
					c-0.1,0.5-0.1,1.2-0.1,1.9c0.1,0,0.2,0.1,0.4,0.1C133.1,36.2,133.1,35.7,133.2,35.3z"/>
			</g>
			<g>
				<path class="st1" d="M131.5,39.3c0.7,0.6,2.1,0.7,3.4,0.7c3,0,5.4,0.2,5.1-3c-0.1,0-0.2,0-0.3,0c0,2.6-2.2,2.5-5.1,2.5
					c-1.1,0-2.3-0.1-3.1-0.5l-0.2-0.1C131.3,39,131.4,39.2,131.5,39.3z"/>
			</g>
		</g>
		<g>
			<g>
				<g>
					<path class="st2" d="M117.4,10.5c5.8,0,11.5,0,17.3,0c-0.2,1.1-0.4,2.2-0.6,3.3c-5,0-10,0-15,0c-0.2,0.6-0.2,1.3-0.4,1.9
						c3.1,0.3,7.7-0.2,11.1,0c1.7,0.1,3.4,1,3.5,2.7c0,0.5-0.1,1-0.2,1.5c-0.1,0.9-0.3,1.7-0.7,2.3c-0.7,1-2,2-3.5,2.1
						c-1.3,0.1-2.9,0-4.4,0c-4.1,0-9,0-13,0c0,0,0-0.1,0-0.1c0.2-1,0.3-2.1,0.6-3.1c5,0,10,0,15,0c0.2-0.7,0.3-1.5,0.4-2.3
						c-1.9,0-3.7,0-5.5,0c-1.8,0-3.7,0.2-5.5,0c-1.9-0.2-3.5-1.4-3.4-3.6C113.3,12.7,114.9,10.8,117.4,10.5z"/>
				</g>
				<g>
					<path class="st2" d="M157.5,10.6c-0.2,1.2-0.4,2.3-0.6,3.4c-5.1,0-10.2,0-15.3,0c-0.1,0.6-0.2,1.2-0.3,1.9
						c4.7,0.1,9.5,0,14.3,0c-0.2,1-0.4,1.9-0.5,2.9c-4.8,0-9.5,0-14.3,0c-0.2,0.6-0.3,1.3-0.4,2c5,0.1,10.2,0,15.3,0
						c-0.2,1.2-0.4,2.3-0.6,3.5c-4.6,0-8.6,0-13.2,0c-1.4,0-2.9,0.2-4.4,0c-1.4-0.2-2.5-1.3-2.6-2.7c-0.1-1.2,0.4-2.7,0.6-4
						c0.3-1.6,0.4-3.5,1-4.7c0.6-1.1,1.9-2.2,3.4-2.4c1.4-0.1,2.9,0,4.4,0C148.8,10.6,153.1,10.6,157.5,10.6z"/>
				</g>
				<g>
					<path class="st2" d="M159.3,10.6c1.5,0,3,0,4.5,0c0.4,6.8,0.8,13.6,1.2,20.4c3.6-6.6,7.2-13.6,10.9-20.4c1.5,0,3,0,4.6,0
						c0.1,0.2-0.2,0.5-0.4,0.8c-4.8,8.7-9.7,17.7-14.5,26.4c-1.6,0-3.1,0-4.7,0C160.3,28.7,159.7,19.5,159.3,10.6z"/>
				</g>
				<g>
					<path class="st2" d="M202.6,10.6c-0.2,1.2-0.4,2.3-0.6,3.4c-5.1,0-10.2,0-15.3,0c-0.2,0.6-0.2,1.3-0.4,1.9c4.8,0,9.6,0,14.3,0
						c-0.2,1-0.3,2-0.5,2.9c-4.8,0-9.5,0-14.2,0c-0.2,0.6-0.3,1.4-0.4,2.1c5.1,0,10.2,0,15.3,0c-0.2,1.2-0.4,2.3-0.6,3.5
						c-4.5,0-8.7,0-13.1,0c-1.4,0-2.9,0.2-4.4,0c-1.6-0.2-2.7-1.5-2.6-3.3c0.1-1.2,0.4-2.5,0.6-3.8c0.2-1.3,0.3-2.8,0.7-3.8
						c0.5-1.3,1.9-2.7,3.6-2.9c1.4-0.1,2.9,0,4.4,0C193.9,10.6,198.2,10.6,202.6,10.6z"/>
				</g>
				<g>
					<path class="st2" d="M225.1,13.3c0,0.2,0,0.4,0,0.6c-0.6,3.5-1.2,7.1-1.9,10.5c-1.8,0-3.6,0.1-5.3,0c0.5-3.5,1.2-6.9,1.7-10.3
						c-3.3,0-6.6,0-10,0c-0.6,3.4-1.2,7-1.8,10.4c-1.7,0-3.5,0-5.2,0c0.8-4.6,1.5-9.2,2.4-13.8c4.2,0,8.8,0,13.1,0
						c1.5,0,3-0.2,4.4,0C224,10.7,224.9,11.9,225.1,13.3z"/>
				</g>
			</g>
			<g>
				<g>
					<path class="st3" d="M65.7,17.7l-0.5,2.9h17.5L82,24.4H57.8l1.1-6.2c0.2-1.2,0.8-2.2,1.9-3c1.1-0.9,2.2-1.3,3.5-1.3h12.8
						l0.3-1.9H60.2L60.9,8h19.3c1.3,0,2.3,0.4,3.1,1.3c0.8,0.9,1,1.9,0.8,3.1l-0.2,1.1c-0.2,1.2-0.8,2.2-1.9,3.1
						c-1,0.8-2.2,1.3-3.5,1.3H65.7z"/>
				</g>
				<g>
					<path class="st3" d="M105.2,8h6.5l-2.8,16.4h-6.5l1-5.9H85.7L87.5,8H94l-1.2,6.7H104L105.2,8z"/>
				</g>
			</g>
			<g>
				<g>
					<path class="st2" d="M64.1,34.2c0-0.1,0-0.1-0.1-0.2c-1.3-0.2-3.5-0.3-4.6,0.1c-0.3,0.8-0.1,1.9,0,2.8c0.7,0.4,2.1,0.3,3.2,0.3
						c0.6,0,1.5,0.1,1.5-0.5c-1-0.1-2.2,0-3.2-0.1c0-0.5,0-1.1,0-1.6c1.1,0,2.2,0,3.2,0c0,0,0,0,0,0l2.3,0c0,0.2,0,0.2,0,0.4
						c0,0.7,0.1,1.7-0.2,2.3c-0.5,1.3-2.3,1.1-3.9,1.3c-0.4,0-0.8,0-1.2,0c-2.2,0-4.2-0.3-4.3-2.4c0-0.6,0-1.3,0-1.9
						c0.1-1.8,1.5-2.3,3.2-2.4c1,0,2,0,3,0c1.2,0.2,2.5,0,3,1.1c0.1,0.2,0.2,0.6,0.2,1L64.1,34.2z"/>
				</g>
				<g>
					<path class="st2" d="M145.9,32.2c1,0,2.1,0,3.1,0c1.7,0.1,2.8,0.7,2.8,2.6c-0.4,0.1-0.9,0-1.4,0c0.8,0.3,1.4,0.7,1.5,1.7
						c0,0.1,0,0.3,0,0.4c-0.1,0.6-0.3,1.2-1,1.5c-1,0.5-2.6,0.4-4,0.4c-1.4,0-3-0.2-3.5-1c-0.3-0.5-0.3-1.3-0.3-1.9
						c0.4,0,0.8,0,1.2,0c-0.4-0.2-0.8-0.5-1-1C142.7,33.2,144.2,32.2,145.9,32.2z M146.6,33.9c-0.5,0-1.2-0.1-1.1,0.5
						c1.1,0.3,2.8,0.2,4,0.3c-0.1-0.2,0-0.5-0.1-0.7C148.8,33.8,147.4,33.8,146.6,33.9z M145.4,37c1.1,0.2,2.9,0.2,4.1,0
						c0-0.2,0-0.4,0-0.6c-1.2-0.2-2.9-0.1-4.2-0.3C145.3,36.5,145.3,36.8,145.4,37z"/>
				</g>
				<g>
					<path class="st2" d="M78.9,35.9c0.6,0.5,0.3,1.9,0.4,2.9c-0.8,0-1.5,0-2.3,0c0-0.6,0-1.4,0-1.9c-1-0.4-2.8-0.1-4.1-0.2
						c0,0.7,0,1.4,0,2.1c-0.8,0-1.6,0-2.3,0c0-2.2-0.1-4.5,0-6.6c3.2,0.3,9-1.2,8.9,2.2C79.4,35,79.3,35.6,78.9,35.9z M72.9,33.9
						c-0.2,0.2,0,0.7-0.1,1.1c1.4-0.1,3.1,0.2,4.2-0.2c0.1-0.2,0.1-0.5,0-0.7C75.9,33.8,74.3,33.9,72.9,33.9z"/>
				</g>
				<g>
					<path class="st2" d="M87.5,32.2c0.7,0,1.5,0,2.2,0c1.5,2.1,3,4.4,4.4,6.6c-0.7-0.2-1.8,0.2-2.5,0c-0.5-0.2-0.4-0.9-0.8-1.1
						c-0.7,0-1.4,0-2.2,0c-0.7,0-1.6-0.2-2.2,0c-0.5,0.2-0.5,0.9-0.9,1.1c-0.8,0-1.7,0-2.5,0c-0.1-0.1,0.1-0.3,0.2-0.4
						c0.6-0.9,1.3-1.9,2-2.8C85.9,34.4,86.7,33.3,87.5,32.2z M87.4,36c0.7,0,1.5,0.1,2.2,0c-0.4-0.5-0.7-1.1-1.1-1.6
						C88.1,35,87.7,35.4,87.4,36z"/>
				</g>
				<g>
					<path class="st2" d="M97.7,32.2c1.5,0,3,0,4.6,0c1.4,0,3.1,0.1,3.7,0.8c0.6,0.7,0.5,2.1,0,2.8c-1,1.3-3.9,0.8-6,0.9
						c0,0.7,0,1.4,0,2.1c-0.8,0-1.6,0-2.3,0c0-2.2,0-4.3,0-6.5C97.6,32.3,97.6,32.2,97.7,32.2z M100,34c0,0.3,0,0.7,0,1
						c1.3-0.1,2.9,0.1,4-0.2c0.1-0.2,0-0.5,0-0.8c-1.1-0.3-2.7-0.1-4-0.2C100,33.9,100,34,100,34z"/>
				</g>
				<g>
					<path class="st2" d="M112.7,32.2c0,0.8,0,1.6,0,2.4c1.5,0.1,3.1,0,4.7,0c0.1-0.7,0-1.6,0-2.4c0.8,0,1.5,0,2.3,0
						c0,2.2,0,4.4,0,6.6c-0.8,0-1.5,0-2.3,0c0-0.8,0-1.6,0-2.5c-1.5-0.1-3.2,0-4.7,0c0,0.8,0,1.7,0,2.5c-0.8,0-1.5,0-2.3,0
						c0-2,0-4.5,0-6.4c0-0.1,0-0.2,0.1-0.2C111.2,32.2,111.9,32.2,112.7,32.2z"/>
				</g>
				<g>
					<path class="st2" d="M123.7,32.2c0.8,0,1.5,0,2.3,0c0,2.2,0,4.4,0,6.6c-0.8,0-1.6,0-2.3,0C123.7,36.6,123.6,34.3,123.7,32.2z"
						/>
				</g>
				<g>
					<path class="st2" d="M139.2,35.2c-0.8,0-1.6,0-2.4,0c0-0.4,0.1-0.7,0-1.1c-1.1-0.3-3.3-0.3-4.4,0c-0.2,0.8-0.1,1.9,0,2.7
						c1,0.5,3.1,0.3,4.4,0.2c0.1-0.3,0.1-0.8,0.1-1.2c0.8,0,1.5,0,2.3,0c0.4,3.2-2,3-5.1,3c-1.3,0-2.7-0.2-3.4-0.7
						c-1.1-0.9-1.1-4.4,0.1-5.2c1.1-0.9,3.6-0.8,5.5-0.6C138.2,32.4,139.3,32.9,139.2,35.2z"/>
				</g>
			</g>
		</g>
	</g>
</g>
</svg>
