<?xml version="1.0" encoding="utf-8"?>
<!-- Generator: Adobe Illustrator 16.0.0, SVG Export Plug-In . SVG Version: 6.00 Build 0)  -->
<!DOCTYPE svg PUBLIC "-//W3C//DTD SVG 1.1//EN" "http://www.w3.org/Graphics/SVG/1.1/DTD/svg11.dtd">
<svg version="1.1" id="Layer_1" xmlns:sketch="http://www.bohemiancoding.com/sketch/ns"
	 xmlns="http://www.w3.org/2000/svg" xmlns:xlink="http://www.w3.org/1999/xlink" x="0px" y="0px" width="19px" height="23px"
	 viewBox="0 0 19 23" enable-background="new 0 0 19 23" xml:space="preserve">
<title></title>
<g id="miu">
	<g id="editor_trash_delete_recycle_bin_glyph">
		<g>
			<path id="path-1" fill="#81D4FA" d="M0.501,1.918c0,0-0.501,0-0.501,1s0.501,1,0.501,1h17.998c0,0,0.501,0,0.501-1
				s-0.501-1-0.501-1H0.501L0.501,1.918z M0.974,4.918h17l-2,18h-13L0.974,4.918z M7.974,0.918c-1,0-1,1-1,1h5c0,0,0-1-1-1H7.974
				L7.974,0.918z"/>
		</g>
		<g>
			<path id="path-1_1_" fill="none" d="M0.501,1.918c0,0-0.501,0-0.501,1s0.501,1,0.501,1h17.998c0,0,0.501,0,0.501-1
				s-0.501-1-0.501-1H0.501L0.501,1.918z M0.974,4.918h17l-2,18h-13L0.974,4.918z M7.974,0.918c-1,0-1,1-1,1h5c0,0,0-1-1-1H7.974
				L7.974,0.918z"/>
		</g>
	</g>
</g>
</svg>
